# xmcd
# 
# Track frame offsets:
#     150
#     19675
#     37395
#     59250
#     76077
#     95552
#     114730
#     131932
#     148760
#     164797
#     183422
#     202037
#     219905
#     234122
# 
# Disc length: 3335
# 
# Revision: 4
# Processed by: cddbd v1.5.2PL0 Copyright (c) Steve Scherf et al.
# Submitted via: BonkEnc v1.0
# 
DISCID=ce0d050e
DTITLE=Zezé di Camargo and Luciano - Dois corações e uma história · Vol. 2
DYEAR=2004
DGENRE=Brega
TTITLE0=Saudade bandida
TTITLE1=Vem cuidar de mim
TTITLE2=Tudo de novo
TTITLE3=Salva meu coração
TTITLE4=Melhor que antes
TTITLE5=Foi a primeira vez
TTITLE6=Eu só penso em você (Always on my mind)
TTITLE7=Madrugada em meu olhar
TTITLE8=Andorinha machucada
TTITLE9=Depos que você matar meu coração
TTITLE10=Faz mais uma vez comigo
TTITLE11=Você vai ver
TTITLE12=Vá embora
TTITLE13=Como um anjo
EXTD=Sony Music Columbia 5099751554523
EXTT0=
EXTT1=
EXTT2=
EXTT3=
EXTT4=
EXTT5=
EXTT6=
EXTT7=
EXTT8=
EXTT9=
EXTT10=
EXTT11=
EXTT12=
EXTT13=
PLAYORDER=
